<svg width="66" height="65" viewBox="0 0 66 65" fill="none" xmlns="http://www.w3.org/2000/svg">
<rect width="66" height="65" rx="10" fill="#F6F8FF"/>
<path d="M41.5618 23.9054C43.6258 23.447 46.3143 21.3984 46.7234 20.3894C46.9633 19.7989 45.7667 18.876 45.4468 18.5038C44.7147 17.6549 45.01 17.2365 45.293 16.2245C45.616 15.0741 44.8501 13.8037 43.7643 13.3054C42.6784 12.807 41.3803 12.9639 40.2883 13.4499C39.1964 13.9359 38.2643 14.7172 37.3507 15.4863C36.6832 15.0648 35.6189 13.2038 33.8964 14.4127C32.7059 15.2463 32.5983 17.0612 32.7521 18.51C33.112 21.8536 33.9363 23.5885 35.4897 24.0561C37.4522 24.6467 39.6239 24.336 41.5618 23.9054Z" fill="#577CFF"/>
<path d="M44.9157 14.2869C44.6542 18.7932 40.2585 21.7832 38.173 23.0997L39.5265 24.2624C39.5265 24.2624 40.3847 24.2809 41.5597 23.9056C43.5745 23.2658 46.5183 21.4571 46.7213 20.3897C47.0197 18.8363 45.4263 19.1747 45.0664 17.9473C44.8787 17.2983 45.98 16.071 44.9157 14.2869ZM37.3548 15.4896C37.3548 15.4896 36.5704 14.6867 35.989 14.3207C35.6999 14.8652 35.4938 15.4558 35.3923 16.0648C35.2108 17.1353 35.3923 18.6548 35.8198 19.7868C35.8875 19.9621 36.1397 19.9345 36.1674 19.7499C36.5366 17.3168 37.3548 15.4896 37.3548 15.4896Z" fill="#1064E2"/>
<path d="M31.8726 23.5087C31.8726 23.5087 22.2784 24.5453 17.9504 32.8752C13.6225 41.2051 17.3014 46.2559 21.1957 48.0954C25.0899 49.9349 34.9025 50.5839 41.2852 49.0705C47.668 47.5571 49.2644 44.4196 48.9661 41.3897C48.5323 36.9663 44.4228 34.2471 44.4228 34.2471C44.4228 34.2471 44.5858 28.7841 40.347 25.2374C36.585 22.0876 31.8726 23.5087 31.8726 23.5087Z" fill="#577CFF"/>
<path d="M35.8098 37.5258C33.752 34.9296 31.3219 34.582 30.5437 33.65C30.1192 33.1424 29.87 32.6287 29.9654 31.992C30.0669 31.3153 30.8513 30.8477 31.4603 30.7339C32.1709 30.5986 33.8658 30.6693 35.29 32.0258C35.6283 32.3457 35.5053 32.8441 35.4961 33.2901C35.4715 34.2467 36.8403 35.1757 37.9477 34.3759C39.0581 33.5731 38.2061 31.7859 37.4893 30.9185C36.948 30.2633 34.9855 28.8206 32.5462 28.593C31.8602 28.5284 29.101 28.1193 27.5076 31.1492C27.0493 32.0197 26.8801 34.1237 29.2794 35.9016C29.7808 36.2738 32.3831 37.5965 33.106 38.4547C34.3579 39.9405 33.4997 41.2478 32.5216 41.42C29.8546 41.8876 28.3443 40.4449 28.0644 39.6544C27.8644 39.0915 28.0736 38.4824 27.8152 37.9534C27.5507 37.4089 27.0093 37.1936 26.4372 37.3751C24.5608 37.9718 25.1575 40.0235 25.9881 41.1524C26.877 42.3613 27.969 43.0903 29.1964 43.4902C33.7766 44.9821 35.979 42.6258 36.3635 40.9002C36.6465 39.6359 36.6157 38.5409 35.8098 37.5258Z" fill="white"/>
<path d="M34.7017 26.8403C30.8044 35.1641 30.1338 45.6749 30.1338 45.6749" stroke="white" stroke-width="2.25" stroke-miterlimit="10"/>
<path d="M37.936 21.6014C40.5322 22.4473 41.1074 24.7943 40.9198 25.4341C40.6952 26.1847 37.8191 23.2624 33.5435 23.4378C32.0485 23.4993 32.4822 22.5826 33.1743 22.0535C34.0879 21.3553 35.6229 20.8508 37.936 21.6014Z" fill="#6D4C41"/>
<path d="M37.936 21.6014C40.5322 22.4473 41.1074 24.7943 40.9198 25.4341C40.6952 26.1847 37.8191 23.2624 33.5435 23.4378C32.0485 23.4993 32.4822 22.5826 33.1743 22.0535C34.0879 21.3553 35.6229 20.8508 37.936 21.6014Z" fill="#F7DECE"/>
<path d="M42.4942 29.8757C42.8202 29.6511 43.9153 30.0387 44.2229 32.1827C44.3736 33.2316 44.4198 34.2467 44.4198 34.2467C44.4198 34.2467 43.1279 33.087 42.7003 32.2719C42.162 31.2414 41.9528 30.2448 42.4942 29.8757Z" fill="#1064E2"/>
</svg>
